<svg xmlns="http://www.w3.org/2000/svg" viewBox="0 0 800 420" font-family="Segoe UI, sans-serif">
<rect width="800" height="420" fill="#ffffff" rx="8"/>
<text x="64" y="30" fill="#1f2328" font-size="17" font-weight="700">★ Star History — timoncool/dub-studio</text>
<text x="776" y="30" fill="#1f2328" font-size="14" text-anchor="end">128 stars · updated 2026-09-24</text>
<line x1="64" y1="364.0" x2="776" y2="364.0" stroke="#d1d9e0" stroke-width="1"/><text x="54" y="368.0" fill="#1f2328" font-size="13" text-anchor="end">0</text><line x1="64" y1="285.0" x2="776" y2="285.0" stroke="#d1d9e0" stroke-width="1"/><text x="54" y="289.0" fill="#1f2328" font-size="13" text-anchor="end">32</text><line x1="64" y1="206.0" x2="776" y2="206.0" stroke="#d1d9e0" stroke-width="1"/><text x="54" y="210.0" fill="#1f2328" font-size="13" text-anchor="end">64</text><line x1="64" y1="127.0" x2="776" y2="127.0" stroke="#d1d9e0" stroke-width="1"/><text x="54" y="131.0" fill="#1f2328" font-size="13" text-anchor="end">96</text><line x1="64" y1="48.0" x2="776" y2="48.0" stroke="#d1d9e0" stroke-width="1"/><text x="54" y="52.0" fill="#1f2328" font-size="13" text-anchor="end">128</text>
<path d="M64.0,364.0 L64.0,361.5 L74.2,359.1 L74.2,356.6 L74.2,354.1 L74.3,351.7 L74.7,349.2 L74.9,346.7 L76.6,344.2 L76.7,341.8 L77.7,339.3 L78.3,336.8 L81.4,334.4 L85.6,331.9 L85.9,329.4 L86.4,327.0 L87.0,324.5 L87.3,322.0 L87.9,319.6 L87.9,317.1 L88.1,314.6 L88.2,312.2 L93.1,309.7 L97.4,307.2 L98.3,304.8 L98.8,302.3 L108.1,299.8 L127.2,297.3 L142.7,294.9 L159.4,292.4 L161.9,289.9 L179.0,287.5 L182.6,285.0 L189.9,282.5 L194.8,280.1 L196.4,277.6 L226.3,275.1 L232.1,272.7 L239.7,270.2 L246.8,267.7 L249.3,265.2 L250.0,262.8 L250.1,260.3 L250.4,257.8 L250.6,255.4 L250.8,252.9 L250.9,250.4 L251.2,248.0 L251.2,245.5 L251.4,243.0 L251.5,240.6 L252.7,238.1 L253.3,235.6 L254.5,233.2 L254.7,230.7 L255.4,228.2 L256.1,225.8 L256.2,223.3 L256.5,220.8 L258.4,218.3 L264.0,215.9 L266.0,213.4 L276.8,210.9 L279.2,208.5 L280.6,206.0 L290.5,203.5 L292.2,201.1 L294.9,198.6 L297.2,196.1 L299.1,193.7 L307.1,191.2 L309.8,188.7 L325.6,186.2 L329.3,183.8 L339.4,181.3 L341.9,178.8 L346.5,176.4 L352.0,173.9 L357.3,171.4 L358.5,169.0 L361.7,166.5 L382.4,164.0 L385.7,161.6 L388.7,159.1 L411.6,156.6 L413.1,154.2 L416.0,151.7 L421.8,149.2 L422.8,146.8 L439.5,144.3 L441.1,141.8 L450.9,139.3 L456.5,136.9 L457.2,134.4 L465.0,131.9 L465.2,129.5 L467.7,127.0 L477.7,124.5 L480.6,122.1 L482.0,119.6 L493.9,117.1 L495.3,114.7 L495.5,112.2 L495.6,109.7 L526.9,107.2 L536.0,104.8 L550.3,102.3 L560.3,99.8 L562.8,97.4 L572.9,94.9 L594.1,92.4 L600.2,90.0 L622.4,87.5 L626.6,85.0 L636.8,82.6 L642.8,80.1 L645.3,77.6 L652.8,75.2 L666.0,72.7 L677.8,70.2 L678.5,67.8 L685.9,65.3 L722.2,62.8 L738.7,60.3 L744.6,57.9 L747.0,55.4 L747.5,52.9 L754.3,50.5 L768.9,48.0 L776.0,48.0" fill="none" stroke="#0969da" stroke-width="2.5" stroke-linejoin="round"/>
<circle cx="776.0" cy="48.0" r="4" fill="#0969da"/>
<text x="64.0" y="388" fill="#1f2328" font-size="13" text-anchor="middle">Jun 21, 2026</text><text x="301.3" y="388" fill="#1f2328" font-size="13" text-anchor="middle">Jul 23, 2026</text><text x="538.7" y="388" fill="#1f2328" font-size="13" text-anchor="middle">Aug 24, 2026</text><text x="776.0" y="388" fill="#1f2328" font-size="13" text-anchor="middle">Sep 24, 2026</text>
</svg>