<svg xmlns="http://www.w3.org/2000/svg" viewBox="0 0 800 420" font-family="Segoe UI, sans-serif">
<rect width="800" height="420" fill="#0d1117" rx="8"/>
<text x="64" y="30" fill="#e6edf3" font-size="17" font-weight="700">★ Star History — timoncool/dub-studio</text>
<text x="776" y="30" fill="#e6edf3" font-size="14" text-anchor="end">144 stars · updated 2026-10-05</text>
<line x1="64" y1="364.0" x2="776" y2="364.0" stroke="#30363d" stroke-width="1"/><text x="54" y="368.0" fill="#e6edf3" font-size="13" text-anchor="end">0</text><line x1="64" y1="285.0" x2="776" y2="285.0" stroke="#30363d" stroke-width="1"/><text x="54" y="289.0" fill="#e6edf3" font-size="13" text-anchor="end">36</text><line x1="64" y1="206.0" x2="776" y2="206.0" stroke="#30363d" stroke-width="1"/><text x="54" y="210.0" fill="#e6edf3" font-size="13" text-anchor="end">72</text><line x1="64" y1="127.0" x2="776" y2="127.0" stroke="#30363d" stroke-width="1"/><text x="54" y="131.0" fill="#e6edf3" font-size="13" text-anchor="end">108</text><line x1="64" y1="48.0" x2="776" y2="48.0" stroke="#30363d" stroke-width="1"/><text x="54" y="52.0" fill="#e6edf3" font-size="13" text-anchor="end">144</text>
<path d="M64.0,364.0 L64.0,361.8 L73.2,359.6 L73.2,357.4 L73.2,355.2 L73.2,353.0 L73.6,350.8 L73.8,348.6 L75.4,346.4 L75.4,344.2 L76.3,342.1 L76.8,339.9 L79.6,337.7 L83.4,335.5 L83.6,333.3 L84.1,331.1 L84.6,328.9 L84.9,326.7 L85.5,324.5 L85.5,322.3 L85.7,320.1 L85.7,317.9 L90.2,315.7 L94.0,313.5 L94.8,311.3 L95.3,309.1 L120.7,306.9 L134.7,304.8 L149.6,302.6 L151.9,300.4 L167.2,298.2 L170.5,296.0 L177.1,293.8 L181.5,291.6 L182.8,289.4 L209.8,287.2 L214.9,285.0 L221.8,282.8 L228.1,280.6 L230.4,278.4 L231.0,276.2 L231.1,274.0 L231.4,271.8 L231.6,269.6 L231.7,267.4 L231.8,265.2 L232.1,263.1 L232.1,260.9 L232.3,258.7 L232.3,256.5 L233.4,254.3 L234.0,252.1 L235.0,249.9 L235.2,247.7 L235.9,245.5 L236.5,243.3 L236.6,241.1 L236.9,238.9 L238.6,236.7 L243.6,234.5 L245.4,232.3 L255.1,230.1 L257.3,227.9 L258.5,225.8 L267.4,223.6 L268.9,221.4 L271.3,219.2 L273.4,217.0 L275.1,214.8 L282.3,212.6 L284.7,210.4 L298.9,208.2 L302.2,206.0 L311.3,203.8 L313.5,201.6 L317.7,199.4 L322.7,197.2 L327.4,195.0 L328.5,192.8 L331.4,190.6 L349.9,188.4 L352.9,186.2 L355.6,184.1 L376.1,181.9 L377.5,179.7 L380.1,177.5 L385.3,175.3 L386.2,173.1 L401.1,170.9 L402.6,168.7 L411.4,166.5 L416.5,164.3 L417.1,162.1 L424.1,159.9 L424.3,157.7 L426.5,155.5 L435.5,153.3 L438.1,151.1 L439.3,148.9 L450.0,146.8 L451.4,144.6 L451.5,142.4 L479.7,140.2 L487.8,138.0 L500.6,135.8 L509.6,133.6 L511.9,131.4 L520.9,129.2 L540.0,127.0 L545.5,124.8 L565.4,122.6 L569.2,120.4 L578.3,118.2 L583.7,116.0 L586.0,113.8 L592.7,111.6 L604.6,109.4 L615.2,107.2 L615.8,105.1 L622.4,102.9 L655.1,100.7 L669.9,98.5 L675.1,96.3 L677.3,94.1 L677.7,91.9 L683.9,89.7 L697.0,87.5 L705.0,85.3 L705.4,83.1 L706.8,80.9 L714.5,78.7 L718.4,76.5 L723.6,74.3 L729.3,72.1 L732.2,69.9 L737.7,67.8 L738.7,65.6 L742.4,63.4 L744.5,61.2 L750.0,59.0 L750.2,56.8 L757.5,54.6 L757.7,52.4 L765.3,50.2 L771.7,48.0 L776.0,48.0" fill="none" stroke="#4f8ff7" stroke-width="2.5" stroke-linejoin="round"/>
<circle cx="776.0" cy="48.0" r="4" fill="#4f8ff7"/>
<text x="64.0" y="388" fill="#e6edf3" font-size="13" text-anchor="middle">Jun 21, 2026</text><text x="301.3" y="388" fill="#e6edf3" font-size="13" text-anchor="middle">Jul 27, 2026</text><text x="538.7" y="388" fill="#e6edf3" font-size="13" text-anchor="middle">Aug 31, 2026</text><text x="776.0" y="388" fill="#e6edf3" font-size="13" text-anchor="middle">Oct 05, 2026</text>
</svg>